<svg width="40" height="40" viewBox="0 0 40 40" fill="none" xmlns="http://www.w3.org/2000/svg">
<path fill-rule="evenodd" clip-rule="evenodd" d="M13.5354 18.1481C12.449 18.1481 12.2223 18.3614 12.2223 19.3827V21.2346C12.2223 22.256 12.449 22.4691 13.5354 22.4691H16.1617V29.8766C16.1617 30.8979 16.3884 31.1111 17.4748 31.1111H20.1011C21.1875 31.1111 21.4142 30.8979 21.4142 29.8766V22.4691H24.3631C25.1871 22.4691 25.3994 22.3186 25.6257 21.5738L26.1885 19.7219C26.5762 18.446 26.3373 18.1481 24.9258 18.1481H21.4142V15.0618C21.4142 14.3799 22.0021 13.8272 22.7273 13.8272H26.4647C27.5511 13.8272 27.7778 13.614 27.7778 12.5926V10.1235C27.7778 9.10208 27.5511 8.88892 26.4647 8.88892H22.7273C19.1012 8.88892 16.1617 11.6526 16.1617 15.0618V18.1481H13.5354Z" stroke="white" stroke-width="1.66667" stroke-linejoin="round"/>
</svg>
