<svg width="41" height="40" viewBox="0 0 41 40" fill="none" xmlns="http://www.w3.org/2000/svg">
<path d="M10.1111 19.9999C10.1111 15.024 10.1111 12.536 11.6569 10.9902C13.2027 9.44434 15.6907 9.44434 20.6666 9.44434C25.6425 9.44434 28.1305 9.44434 29.6764 10.9902C31.2222 12.536 31.2222 15.024 31.2222 19.9999C31.2222 24.9758 31.2222 27.4638 29.6764 29.0097C28.1305 30.5554 25.6425 30.5554 20.6666 30.5554C15.6907 30.5554 13.2027 30.5554 11.6569 29.0097C10.1111 27.4638 10.1111 24.9758 10.1111 19.9999Z" stroke="white" stroke-width="1.66667" stroke-linejoin="round"/>
<path d="M25.6666 20C25.6666 22.7614 23.4281 25 20.6666 25C17.9052 25 15.6666 22.7614 15.6666 20C15.6666 17.2386 17.9052 15 20.6666 15C23.4281 15 25.6666 17.2386 25.6666 20Z" stroke="white" stroke-width="1.66667"/>
<path d="M26.7865 13.8889H26.7765" stroke="white" stroke-width="2.22222" stroke-linecap="round" stroke-linejoin="round"/>
</svg>
