<svg width="40" height="40" viewBox="0 0 40 40" fill="none" xmlns="http://www.w3.org/2000/svg">
<path d="M11.6667 17.2223H11.1111C10.0636 17.2223 9.53979 17.2223 9.21435 17.5477C8.88892 17.8732 8.88892 18.397 8.88892 19.4445V28.889C8.88892 29.9365 8.88892 30.4603 9.21435 30.7857C9.53979 31.1112 10.0636 31.1112 11.1111 31.1112H11.6667C12.7143 31.1112 13.238 31.1112 13.5635 30.7857C13.8889 30.4603 13.8889 29.9365 13.8889 28.889V19.4445C13.8889 18.397 13.8889 17.8732 13.5635 17.5477C13.238 17.2223 12.7143 17.2223 11.6667 17.2223Z" stroke="white" stroke-width="1.66667"/>
<path d="M13.8889 11.3889C13.8889 12.7696 12.7696 13.8889 11.3889 13.8889C10.0082 13.8889 8.88892 12.7696 8.88892 11.3889C8.88892 10.0082 10.0082 8.88892 11.3889 8.88892C12.7696 8.88892 13.8889 10.0082 13.8889 11.3889Z" stroke="white" stroke-width="1.66667"/>
<path d="M20.3623 17.2223H19.4445C18.397 17.2223 17.8732 17.2223 17.5477 17.5477C17.2223 17.8732 17.2223 18.397 17.2223 19.4445V28.889C17.2223 29.9365 17.2223 30.4603 17.5477 30.7857C17.8732 31.1112 18.397 31.1112 19.4445 31.1112H20.0001C21.0476 31.1112 21.5714 31.1112 21.8968 30.7857C22.2223 30.4603 22.2223 29.9365 22.2223 28.889L22.2224 25.0002C22.2224 23.1593 22.8091 21.6668 24.5422 21.6668C25.4086 21.6668 26.1112 22.4131 26.1112 23.3335V28.3335C26.1112 29.3811 26.1112 29.9048 26.4366 30.2303C26.762 30.5557 27.2858 30.5557 28.3334 30.5557H28.8875C29.9348 30.5557 30.4585 30.5557 30.784 30.2304C31.1094 29.9051 31.1095 29.3814 31.1097 28.3341L31.1113 22.2225C31.1113 19.4612 28.485 17.2226 25.8854 17.2226C24.4055 17.2226 23.0853 17.948 22.2224 19.0823C22.2223 18.3822 22.2223 18.0322 22.0703 17.7723C21.974 17.6077 21.8368 17.4707 21.6723 17.3744C21.4124 17.2223 21.0624 17.2223 20.3623 17.2223Z" stroke="white" stroke-width="1.66667" stroke-linejoin="round"/>
</svg>
