<svg width="89" height="88" viewBox="0 0 89 88" fill="none" xmlns="http://www.w3.org/2000/svg">
<path fill-rule="evenodd" clip-rule="evenodd" d="M60.6112 7.41033L60.8532 7.47633C64.8865 8.558 68.0802 9.41233 70.5919 10.3217C73.1622 11.2493 75.2595 12.309 76.9865 13.926C79.5 16.2819 81.2584 19.3303 82.0392 22.6857C82.5782 24.9883 82.4499 27.335 81.9659 30.0227C81.5002 32.6553 80.6459 35.849 79.5642 39.8787L77.5989 47.2083C76.5209 51.238 75.6629 54.4317 74.7572 56.9433C73.8259 59.5137 72.7662 61.611 71.1492 63.338C68.8702 65.7714 65.9407 67.4996 62.7085 68.3173C61.7615 70.4884 60.3816 72.4435 58.6532 74.063C56.9262 75.68 54.8289 76.7397 52.2585 77.671C49.7469 78.5803 46.5532 79.4347 42.5235 80.5163L42.2779 80.5823C38.2445 81.6603 35.0545 82.5147 32.4219 82.9877C29.7342 83.468 27.3875 83.5963 25.0812 83.061C21.7263 82.2775 18.6792 80.5166 16.3252 78.001C14.7119 76.2777 13.6485 74.1803 12.7172 71.61C11.8115 69.0983 10.9572 65.9047 9.87554 61.8713L7.91021 54.5453C6.83221 50.512 5.97421 47.322 5.50488 44.6893C5.02454 42.0017 4.89621 39.655 5.43154 37.3487C6.21508 33.9938 7.97599 30.9466 10.4915 28.5927C12.2149 26.9793 14.3122 25.916 16.8825 24.9847C19.3942 24.079 22.5879 23.2247 26.6175 22.143L26.7422 22.1063L29.4959 21.373C30.9332 16.2433 32.1945 12.617 34.6585 9.988C37.013 7.47379 40.0601 5.71419 43.4145 4.93167C45.7209 4.39633 48.0639 4.52467 50.7552 5.005C53.3842 5.47433 56.5779 6.33233 60.6112 7.41033ZM27.8349 27.511C23.8272 28.5853 20.9562 29.3627 18.7489 30.1583C16.5122 30.965 15.2032 31.713 14.2499 32.6077C12.5289 34.2185 11.3244 36.3035 10.7885 38.599C10.4952 39.875 10.4989 41.3857 10.9205 43.7213C11.3422 46.0937 12.1379 49.0637 13.2562 53.2437L15.1555 60.3277C16.2739 64.5077 17.0732 67.4777 17.8909 69.74C18.6975 71.9767 19.4455 73.2893 20.3402 74.2427C21.951 75.9636 24.036 77.1682 26.3315 77.704C27.6039 77.9973 29.1182 77.99 31.4539 77.572C33.8262 77.1503 36.7962 76.3547 40.9762 75.2363C45.1562 74.1143 48.1262 73.3187 50.3922 72.4973C52.6252 71.6907 53.9379 70.9427 54.8912 70.0517C55.3972 69.575 55.8555 69.0617 56.2699 68.5153C55.5897 68.4181 54.9123 68.302 54.2385 68.167C51.7745 67.6757 48.8119 66.8837 45.1635 65.9047L44.9509 65.8497C40.9212 64.768 37.7275 63.9137 35.2159 63.0043C32.6455 62.0767 30.5482 61.017 28.8212 59.4C26.3064 57.0446 24.5467 53.9961 23.7649 50.6403C23.2295 48.3377 23.3579 45.991 23.8382 43.2997C24.3075 40.6707 25.1655 37.477 26.2435 33.4473L27.8349 27.511ZM49.7872 10.4207C47.4479 9.999 45.9372 9.99167 44.6649 10.2887C42.3694 10.8245 40.2844 12.0291 38.6735 13.75C37.0749 15.455 36.0885 18.095 34.3799 24.3577C34.1012 25.377 33.8079 26.4733 33.4889 27.665L31.5895 34.749C30.4712 38.929 29.6755 41.899 29.2539 44.2713C28.8322 46.607 28.8249 48.1213 29.1219 49.3937C29.6577 51.6892 30.8623 53.7742 32.5832 55.385C33.5365 56.2797 34.8492 57.024 37.0822 57.8343C39.3482 58.652 42.3182 59.4477 46.4982 60.5697C50.2565 61.578 53.0432 62.3223 55.3092 62.7697C57.5642 63.2207 59.0969 63.3307 60.3509 63.1767C60.6259 63.14 60.8862 63.096 61.1429 63.0373C63.4384 62.5015 65.5234 61.2969 67.1342 59.576C68.0289 58.6227 68.7769 57.31 69.5835 55.077C70.4012 52.811 71.1969 49.841 72.3189 45.661L74.2182 38.577C75.3365 34.397 76.1322 31.427 76.5539 29.0547C76.9719 26.719 76.9829 25.2047 76.6859 23.9323C76.1501 21.6368 74.9455 19.5518 73.2245 17.941C72.2712 17.0463 70.9585 16.302 68.7255 15.4917C66.4559 14.674 63.4895 13.8783 59.3095 12.7563C55.1295 11.638 52.1595 10.8423 49.7872 10.4207ZM41.0239 35.9553C41.1175 35.6064 41.2789 35.2794 41.4989 34.9929C41.7189 34.7064 41.9932 34.466 42.3061 34.2856C42.619 34.1051 42.9644 33.9881 43.3226 33.9411C43.6808 33.8942 44.0447 33.9183 44.3935 34.012L62.1035 38.7567C62.7885 38.9626 63.3662 39.4273 63.7142 40.0522C64.0622 40.6771 64.1531 41.4129 63.9675 42.1037C63.782 42.7944 63.3346 43.3857 62.7203 43.752C62.106 44.1184 61.3732 44.231 60.6772 44.066L42.9672 39.3213C42.2634 39.1323 41.6634 38.6716 41.299 38.0405C40.9346 37.4093 40.8357 36.6594 41.0239 35.9553ZM38.1749 46.5813C38.2684 46.232 38.43 45.9046 38.6502 45.6178C38.8705 45.3311 39.1451 45.0905 39.4585 44.91C39.7718 44.7295 40.1177 44.6126 40.4763 44.5659C40.8348 44.5192 41.1991 44.5437 41.5482 44.638L52.1705 47.4833C52.8751 47.672 53.4758 48.1328 53.8406 48.7644C54.2054 49.396 54.3044 50.1466 54.1157 50.8512C53.9271 51.5557 53.4662 52.1565 52.8346 52.5212C52.2031 52.886 51.4524 52.985 50.7479 52.7963L40.1219 49.9473C39.4181 49.7583 38.8181 49.2976 38.4537 48.6665C38.0893 48.0353 37.9904 47.2854 38.1785 46.5813H38.1749Z" fill="url(#paint0_linear_267_62)"/>
<defs>
<linearGradient id="paint0_linear_267_62" x1="5.08362" y1="43.9963" x2="82.3899" y2="43.9963" gradientUnits="userSpaceOnUse">
<stop stop-color="#38B6FF"/>
<stop offset="1" stop-color="#0088D7"/>
</linearGradient>
</defs>
</svg>
