<svg width="88" height="88" viewBox="0 0 88 88" fill="none" xmlns="http://www.w3.org/2000/svg">
<g clip-path="url(#clip0_267_68)">
<path fill-rule="evenodd" clip-rule="evenodd" d="M44 14.6667C44 15.6391 44.3863 16.5718 45.0739 17.2594C45.7616 17.947 46.6942 18.3333 47.6667 18.3333H64.482L45.0743 37.741C44.5617 38.2538 44.2126 38.9071 44.0712 39.6182C43.9298 40.3294 44.0024 41.0665 44.2798 41.7364C44.5573 42.4063 45.0272 42.9789 45.63 43.3818C46.2328 43.7847 46.9416 43.9998 47.6667 44H73.3333C74.3058 44 75.2384 43.6137 75.9261 42.9261C76.6137 42.2384 77 41.3058 77 40.3333C77 39.3609 76.6137 38.4282 75.9261 37.7406C75.2384 37.053 74.3058 36.6667 73.3333 36.6667H56.518L75.9257 17.259C76.4383 16.7462 76.7874 16.0929 76.9288 15.3818C77.0702 14.6706 76.9976 13.9335 76.7202 13.2636C76.4427 12.5937 75.9729 12.0211 75.37 11.6182C74.7672 11.2153 74.0584 11.0002 73.3333 11H47.6667C46.6942 11 45.7616 11.3863 45.0739 12.0739C44.3863 12.7616 44 13.6942 44 14.6667ZM14.6667 36.6667C13.6942 36.6667 12.7616 36.2804 12.0739 35.5927C11.3863 34.9051 11 33.9725 11 33C11 32.0275 11.3863 31.0949 12.0739 30.4073C12.7616 29.7196 13.6942 29.3333 14.6667 29.3333H33C33.7251 29.3335 34.4338 29.5486 35.0367 29.9515C35.6395 30.3544 36.1094 30.927 36.3868 31.5969C36.6643 32.2668 36.7369 33.004 36.5955 33.7151C36.4541 34.4263 36.105 35.0795 35.5923 35.5923L23.518 47.6667H33C33.9725 47.6667 34.9051 48.053 35.5927 48.7406C36.2804 49.4282 36.6667 50.3609 36.6667 51.3333C36.6667 52.3058 36.2804 53.2384 35.5927 53.9261C34.9051 54.6137 33.9725 55 33 55H14.6667C13.9416 54.9998 13.2328 54.7847 12.63 54.3818C12.0271 53.9789 11.5573 53.4063 11.2798 52.7364C11.0024 52.0665 10.9298 51.3294 11.0712 50.6182C11.2126 49.9071 11.5617 49.2538 12.0743 48.741L24.1487 36.6667H14.6667ZM44 62.3333C43.0275 62.3333 42.0949 61.947 41.4073 61.2594C40.7196 60.5718 40.3333 59.6391 40.3333 58.6667C40.3333 57.6942 40.7196 56.7616 41.4073 56.0739C42.0949 55.3863 43.0275 55 44 55H58.6667C59.3918 55.0002 60.1005 55.2153 60.7033 55.6182C61.3062 56.0211 61.776 56.5937 62.0535 57.2636C62.3309 57.9335 62.4036 58.6706 62.2621 59.3818C62.1207 60.0929 61.7716 60.7462 61.259 61.259L52.8513 69.6667H58.6667C59.6391 69.6667 60.5718 70.053 61.2594 70.7406C61.947 71.4282 62.3333 72.3609 62.3333 73.3333C62.3333 74.3058 61.947 75.2384 61.2594 75.9261C60.5718 76.6137 59.6391 77 58.6667 77H44C43.2749 76.9998 42.5662 76.7847 41.9633 76.3818C41.3605 75.9789 40.8906 75.4063 40.6132 74.7364C40.3357 74.0665 40.2631 73.3294 40.4045 72.6182C40.5459 71.9071 40.895 71.2538 41.4077 70.741L49.8153 62.3333H44Z" fill="url(#paint0_linear_267_68)"/>
</g>
<defs>
<linearGradient id="paint0_linear_267_68" x1="11" y1="44" x2="77" y2="44" gradientUnits="userSpaceOnUse">
<stop stop-color="#38B6FF"/>
<stop offset="1" stop-color="#0088D7"/>
</linearGradient>
<clipPath id="clip0_267_68">
<rect width="88" height="88" fill="white"/>
</clipPath>
</defs>
</svg>
