<svg width="101" height="89" viewBox="0 0 101 89" fill="none" xmlns="http://www.w3.org/2000/svg">
<g clip-path="url(#clip0_267_37)">
<path opacity="0.2" d="M100.141 49.0128C100.141 54.1983 99.1197 59.3331 97.1353 64.1239C95.1509 68.9147 92.2423 73.2677 88.5756 76.9345C84.9089 80.6012 80.5558 83.5098 75.765 85.4942C70.9742 87.4786 65.8395 88.5 60.6539 88.5C55.4684 88.5 50.3336 87.4786 45.5428 85.4942C40.752 83.5098 36.399 80.6012 32.7323 76.9345C29.0656 73.2677 26.1569 68.9147 24.1725 64.1239C22.1881 59.3331 21.1667 54.1983 21.1667 49.0128C21.1667 38.5402 25.327 28.4964 32.7323 21.0912C40.1376 13.6859 50.1813 9.52563 60.6539 9.52563C71.1266 9.52563 81.1703 13.6859 88.5756 21.0912C95.9809 28.4964 100.141 38.5402 100.141 49.0128Z" fill="url(#paint0_linear_267_37)"/>
<path fill-rule="evenodd" clip-rule="evenodd" d="M49.3718 3.8846C49.3718 3.13655 49.669 2.41915 50.1979 1.8902C50.7269 1.36125 51.4443 1.06409 52.1923 1.06409C60.56 1.06409 68.7398 3.54539 75.6972 8.19422C82.6547 12.843 88.0774 19.4506 91.2795 27.1813C94.4817 34.912 95.3196 43.4187 93.6871 51.6256C92.0546 59.8325 88.0252 67.371 82.1084 73.2878C76.1916 79.2047 68.653 83.2341 60.4462 84.8665C52.2393 86.499 43.7326 85.6612 36.0019 82.459C28.2712 79.2568 21.6636 73.8341 17.0148 66.8767C12.3659 59.9192 9.88464 51.7394 9.88464 43.3718C9.88464 42.6237 10.1818 41.9063 10.7108 41.3774C11.2397 40.8484 11.9571 40.5513 12.7052 40.5513C13.4532 40.5513 14.1706 40.8484 14.6996 41.3774C15.2285 41.9063 15.5257 42.6237 15.5257 43.3718C15.5257 50.6238 17.6761 57.7129 21.7051 63.7427C25.7341 69.7725 31.4607 74.4721 38.1606 77.2474C44.8606 80.0226 52.233 80.7487 59.3456 79.3339C66.4583 77.9191 72.9917 74.427 78.1196 69.299C83.2475 64.1711 86.7397 57.6377 88.1545 50.5251C89.5693 43.4125 88.8431 36.04 86.0679 29.3401C83.2927 22.6401 78.593 16.9135 72.5632 12.8846C66.5334 8.85558 59.4443 6.70511 52.1923 6.70511C51.4443 6.70511 50.7269 6.40795 50.1979 5.879C49.669 5.35005 49.3718 4.63265 49.3718 3.8846Z" fill="url(#paint1_linear_267_37)"/>
<path d="M38.0898 5.29486C38.0898 6.41693 37.6441 7.49304 36.8507 8.28646C36.0573 9.07989 34.9812 9.52563 33.8591 9.52563C32.737 9.52563 31.6609 9.07989 30.8675 8.28646C30.0741 7.49304 29.6283 6.41693 29.6283 5.29486C29.6283 4.17279 30.0741 3.09667 30.8675 2.30325C31.6609 1.50983 32.737 1.06409 33.8591 1.06409C34.9812 1.06409 36.0573 1.50983 36.8507 2.30325C37.6441 3.09667 38.0898 4.17279 38.0898 5.29486ZM23.9873 13.7564C23.9873 14.8785 23.5415 15.9546 22.7481 16.748C21.9547 17.5414 20.8786 17.9872 19.7565 17.9872C18.6344 17.9872 17.5583 17.5414 16.7649 16.748C15.9715 15.9546 15.5257 14.8785 15.5257 13.7564C15.5257 12.6343 15.9715 11.5582 16.7649 10.7648C17.5583 9.97137 18.6344 9.52563 19.7565 9.52563C20.8786 9.52563 21.9547 9.97137 22.7481 10.7648C23.5415 11.5582 23.9873 12.6343 23.9873 13.7564ZM15.5257 27.859C15.5257 28.981 15.08 30.0571 14.2866 30.8506C13.4932 31.644 12.417 32.0897 11.295 32.0897C10.1729 32.0897 9.0968 31.644 8.30337 30.8506C7.50995 30.0571 7.06421 28.981 7.06421 27.859C7.06421 26.7369 7.50995 25.6608 8.30337 24.8674C9.0968 24.0739 10.1729 23.6282 11.295 23.6282C12.417 23.6282 13.4932 24.0739 14.2866 24.8674C15.08 25.6608 15.5257 26.7369 15.5257 27.859Z" fill="url(#paint2_linear_267_37)"/>
<path fill-rule="evenodd" clip-rule="evenodd" d="M26.5086 50.2764C26.8437 49.6076 26.8995 48.8331 26.6635 48.1233C26.4276 47.4135 25.9194 46.8264 25.2507 46.4913L13.9686 40.8502C13.3007 40.522 12.53 40.471 11.8247 40.7084C11.1193 40.9459 10.5364 41.4525 10.203 42.1179C9.86951 42.7833 9.81259 43.5535 10.0446 44.2607C10.2766 44.9679 10.7787 45.5547 11.4414 45.8933L22.7235 51.5343C23.3923 51.8694 24.1667 51.9252 24.8766 51.6892C25.5864 51.4533 26.1735 50.9451 26.5086 50.2764Z" fill="url(#paint3_linear_267_37)"/>
<path fill-rule="evenodd" clip-rule="evenodd" d="M14.7021 41.3749C14.9647 41.6369 15.1731 41.9481 15.3153 42.2908C15.4575 42.6335 15.5307 43.0008 15.5307 43.3718C15.5307 43.7428 15.4575 44.1101 15.3153 44.4528C15.1731 44.7955 14.9647 45.1067 14.7021 45.3687L6.24051 53.8303C5.71165 54.3599 4.99405 54.6577 4.24559 54.6582C3.49712 54.6588 2.7791 54.3619 2.24949 53.8331C1.71987 53.3042 1.42204 52.5866 1.42151 51.8381C1.42098 51.0897 1.7178 50.3717 2.24667 49.8421L10.7082 41.3805C10.9702 41.1178 11.2815 40.9095 11.6241 40.7673C11.9668 40.6251 12.3341 40.5519 12.7051 40.5519C13.0761 40.5519 13.4435 40.6251 13.7861 40.7673C14.1288 40.9095 14.4401 41.1178 14.7021 41.3805V41.3749ZM52.1923 23.6282C52.9404 23.6282 53.6578 23.9254 54.1867 24.4543C54.7157 24.9833 55.0128 25.7007 55.0128 26.4487V43.3718C55.0128 44.1198 54.7157 44.8373 54.1867 45.3662C53.6578 45.8951 52.9404 46.1923 52.1923 46.1923C51.4443 46.1923 50.7269 45.8951 50.1979 45.3662C49.669 44.8373 49.3718 44.1198 49.3718 43.3718V26.4487C49.3718 25.7007 49.669 24.9833 50.1979 24.4543C50.7269 23.9254 51.4443 23.6282 52.1923 23.6282Z" fill="url(#paint4_linear_267_37)"/>
<path fill-rule="evenodd" clip-rule="evenodd" d="M71.9359 43.3718C71.9359 44.1198 71.6388 44.8372 71.1098 45.3662C70.5809 45.8951 69.8635 46.1923 69.1154 46.1923H52.1923C51.4443 46.1923 50.7269 45.8951 50.1979 45.3662C49.669 44.8372 49.3718 44.1198 49.3718 43.3718C49.3718 42.6237 49.669 41.9063 50.1979 41.3774C50.7269 40.8484 51.4443 40.5513 52.1923 40.5513H69.1154C69.8635 40.5513 70.5809 40.8484 71.1098 41.3774C71.6388 41.9063 71.9359 42.6237 71.9359 43.3718Z" fill="url(#paint5_linear_267_37)"/>
</g>
<defs>
<linearGradient id="paint0_linear_267_37" x1="21.1667" y1="49.0128" x2="100.141" y2="49.0128" gradientUnits="userSpaceOnUse">
<stop stop-color="#38B6FF"/>
<stop offset="1" stop-color="#0088D7"/>
</linearGradient>
<linearGradient id="paint1_linear_267_37" x1="9.88464" y1="43.3718" x2="94.5" y2="43.3718" gradientUnits="userSpaceOnUse">
<stop stop-color="#38B6FF"/>
<stop offset="1" stop-color="#0088D7"/>
</linearGradient>
<linearGradient id="paint2_linear_267_37" x1="7.06421" y1="16.5769" x2="38.0898" y2="16.5769" gradientUnits="userSpaceOnUse">
<stop stop-color="#38B6FF"/>
<stop offset="1" stop-color="#0088D7"/>
</linearGradient>
<linearGradient id="paint3_linear_267_37" x1="9.90405" y1="46.1971" x2="26.8075" y2="46.1971" gradientUnits="userSpaceOnUse">
<stop stop-color="#38B6FF"/>
<stop offset="1" stop-color="#0088D7"/>
</linearGradient>
<linearGradient id="paint4_linear_267_37" x1="1.42151" y1="39.1432" x2="55.0128" y2="39.1432" gradientUnits="userSpaceOnUse">
<stop stop-color="#38B6FF"/>
<stop offset="1" stop-color="#0088D7"/>
</linearGradient>
<linearGradient id="paint5_linear_267_37" x1="49.3718" y1="43.3718" x2="71.9359" y2="43.3718" gradientUnits="userSpaceOnUse">
<stop stop-color="#38B6FF"/>
<stop offset="1" stop-color="#0088D7"/>
</linearGradient>
<clipPath id="clip0_267_37">
<rect width="99.2821" height="88" fill="white" transform="translate(0.859009 0.5)"/>
</clipPath>
</defs>
</svg>
