<svg width="96" height="89" viewBox="0 0 96 89" fill="none" xmlns="http://www.w3.org/2000/svg">
<g clip-path="url(#clip0_267_49)">
<path d="M24.9 1.12856L12.0143 14.0261L6.98575 8.99749L1.32861 14.6429L9.18576 22.5L12.0143 25.195L14.8429 22.4961L30.5572 6.78178L24.9 1.12463V1.12856ZM43.4429 7.88571V15.7428H94.5143V7.88571H43.4429ZM24.9 32.5571L12.0143 45.4586L6.98575 40.4143L1.32861 46.0714L9.18576 53.9286L12.0143 56.6236L14.8429 53.9246L30.5572 38.2104L24.9 32.5571ZM43.4429 39.3143V47.1714H94.5143V39.3143H43.4429ZM24.9 63.9857L12.0143 76.8832L6.98575 71.8546L1.32861 77.5L9.18576 85.3571L12.0143 88.0521L14.8429 85.3532L30.5572 69.6389L24.9 63.9818V63.9857ZM43.4429 70.7429V78.6H94.5143V70.7429H43.4429Z" fill="url(#paint0_linear_267_49)"/>
</g>
<defs>
<linearGradient id="paint0_linear_267_49" x1="1.32861" y1="44.5884" x2="94.5143" y2="44.5884" gradientUnits="userSpaceOnUse">
<stop stop-color="#38B6FF"/>
<stop offset="1" stop-color="#0088D7"/>
</linearGradient>
<clipPath id="clip0_267_49">
<rect width="94.2857" height="88" fill="white" transform="translate(0.857178 0.5)"/>
</clipPath>
</defs>
</svg>
