<svg width="89" height="88" viewBox="0 0 89 88" fill="none" xmlns="http://www.w3.org/2000/svg">
<g clip-path="url(#clip0_267_55)">
<path d="M9.16659 71.1667V25.3333H75.8333V39.0417C78.8333 39.9583 81.6666 41.2917 84.1666 43.0833V25.3333C84.1666 20.7083 80.4583 17 75.8333 17H59.1666V8.66668C59.1666 4.04168 55.4583 0.333344 50.8333 0.333344H34.1666C29.5416 0.333344 25.8333 4.04168 25.8333 8.66668V17H9.16659C4.54159 17 0.874919 20.7083 0.874919 25.3333L0.833252 71.1667C0.833252 75.7917 4.54159 79.5 9.16659 79.5H41.1666C39.9166 76.9167 39.0833 74.125 38.6666 71.1667H9.16659ZM34.1666 8.66668H50.8333V17H34.1666V8.66668Z" fill="url(#paint0_linear_267_55)"/>
<path d="M67.5001 46.1667C56.0001 46.1667 46.6667 55.5 46.6667 67C46.6667 78.5 56.0001 87.8333 67.5001 87.8333C79.0001 87.8333 88.3334 78.5 88.3334 67C88.3334 55.5 79.0001 46.1667 67.5001 46.1667ZM74.3751 76.7917L65.4167 67.8333V54.5H69.5834V66.125L77.2918 73.8333L74.3751 76.7917Z" fill="url(#paint1_linear_267_55)"/>
</g>
<defs>
<linearGradient id="paint0_linear_267_55" x1="0.833252" y1="39.9167" x2="84.1666" y2="39.9167" gradientUnits="userSpaceOnUse">
<stop stop-color="#38B6FF"/>
<stop offset="1" stop-color="#0088D7"/>
</linearGradient>
<linearGradient id="paint1_linear_267_55" x1="46.6667" y1="67" x2="88.3334" y2="67" gradientUnits="userSpaceOnUse">
<stop stop-color="#38B6FF"/>
<stop offset="1" stop-color="#0088D7"/>
</linearGradient>
<clipPath id="clip0_267_55">
<rect width="89" height="88" fill="white"/>
</clipPath>
</defs>
</svg>
